<?xml version="1.0" encoding="UTF-8" standalone="no"?>
<!-- Created with Inkscape (http://www.inkscape.org/) -->

<svg
   xmlns:dc="http://purl.org/dc/elements/1.1/"
   xmlns:cc="http://creativecommons.org/ns#"
   xmlns:rdf="http://www.w3.org/1999/02/22-rdf-syntax-ns#"
   xmlns:svg="http://www.w3.org/2000/svg"
   xmlns="http://www.w3.org/2000/svg"
   xmlns:sodipodi="http://sodipodi.sourceforge.net/DTD/sodipodi-0.dtd"
   xmlns:inkscape="http://www.inkscape.org/namespaces/inkscape"
   width="450mm"
   height="450mm"
   viewBox="0 0 450 450"
   version="1.1"
   id="svg8"
   inkscape:version="0.92.3 (2405546, 2018-03-11)"
   sodipodi:docname="book.svg">
  <defs
     id="defs2" />
  <sodipodi:namedview
     id="base"
     pagecolor="#ffffff"
     bordercolor="#666666"
     borderopacity="1.0"
     inkscape:pageopacity="0.0"
     inkscape:pageshadow="2"
     inkscape:zoom="0.35"
     inkscape:cx="38.939666"
     inkscape:cy="633.36935"
     inkscape:document-units="mm"
     inkscape:current-layer="layer1"
     showgrid="true"
     inkscape:window-width="1641"
     inkscape:window-height="995"
     inkscape:window-x="39"
     inkscape:window-y="27"
     inkscape:window-maximized="1">
    <inkscape:grid
       type="xygrid"
       id="grid10"
       units="mm"
       spacingx="10"
       spacingy="10" />
  </sodipodi:namedview>
  <metadata
     id="metadata5">
    <rdf:RDF>
      <cc:Work
         rdf:about="">
        <dc:format>image/svg+xml</dc:format>
        <dc:type
           rdf:resource="http://purl.org/dc/dcmitype/StillImage" />
        <dc:title></dc:title>
      </cc:Work>
    </rdf:RDF>
  </metadata>
  <g
     inkscape:label="Layer 1"
     inkscape:groupmode="layer"
     id="layer1"
     transform="translate(0,153)">
    <path
       style="fill:#000000;stroke:#000000;stroke-width:0.99999994px;stroke-linecap:butt;stroke-linejoin:miter;stroke-opacity:1"
       d="M 566.92969 340.1582 C 377.95332 340.1582 302.36133 453.54297 302.36133 453.54297 L 302.36133 1322.834 C 302.36133 1322.834 377.95332 1209.4492 566.92969 1209.4492 C 755.90607 1209.4492 831.49609 1322.834 831.49609 1322.834 L 831.49609 453.54297 C 831.49609 453.54297 755.90607 340.1582 566.92969 340.1582 z M 377.95312 604.72461 L 755.90625 604.72461 L 755.90625 642.51953 L 377.95312 642.51953 L 377.95312 604.72461 z M 377.95312 793.70117 L 755.90625 793.70117 L 755.90625 831.49609 L 377.95312 831.49609 L 377.95312 793.70117 z M 377.95312 982.67773 L 755.90625 982.67773 L 755.90625 1020.4727 L 377.95312 1020.4727 L 377.95312 982.67773 z "
       transform="matrix(0.26458333,0,0,0.26458333,0,-153)"
       id="path121" />
    <path
       style="fill:#000000;stroke:#000000;stroke-width:0.99999994px;stroke-linecap:butt;stroke-linejoin:miter;stroke-opacity:1"
       d="M 1133.8574 340.1582 C 944.8811 340.1582 869.29102 453.54297 869.29102 453.54297 L 869.29102 1322.834 C 869.29102 1322.834 944.8811 1209.4492 1133.8574 1209.4492 C 1322.8337 1209.4492 1398.4258 1322.834 1398.4258 1322.834 L 1398.4258 453.54297 C 1398.4258 453.54297 1322.8337 340.1582 1133.8574 340.1582 z M 944.88281 604.72461 L 1096.0625 604.72461 L 1096.0625 831.49609 L 944.88281 831.49609 L 944.88281 604.72461 z M 1171.6543 604.72461 L 1322.834 604.72461 L 1322.834 642.51953 L 1171.6543 642.51953 L 1171.6543 604.72461 z M 1171.6543 793.70117 L 1322.834 793.70117 L 1322.834 831.49609 L 1171.6543 831.49609 L 1171.6543 793.70117 z M 944.88281 982.67773 L 1322.834 982.67773 L 1322.834 1020.4727 L 944.88281 1020.4727 L 944.88281 982.67773 z "
       transform="matrix(0.26458333,0,0,0.26458333,0,-153)"
       id="path123" />
    <path
       style="fill:#000000;stroke:#000000;stroke-width:0.26458332px;stroke-linecap:butt;stroke-linejoin:miter;stroke-opacity:1"
       d="m 220,217 c 0,0 -20,-30 -70,-30 -50,0 -70.000002,30 -70.000002,30 l -20,19.99998 V -13.000001 L 69.999999,-23.000002 V 217 c 0,0 30.000001,-40 80.000001,-40 50,0 70,29.99999 70,29.99999 z"
       id="path127"
       inkscape:connector-curvature="0" />
    <path
       style="fill:#000000;stroke:#000000;stroke-width:0.26458332px;stroke-linecap:butt;stroke-linejoin:miter;stroke-opacity:1"
       d="M 230,206.99999 V 217 c 0,0 20,-30 70,-30 49.99998,0 70,30 70,30 l 19.99998,19.99998 V -13.000001 L 380,-23.000002 V 217 c 0,0 -30.00002,-40 -80,-40 -50,0 -70,29.99999 -70,29.99999 V 217"
       id="path129"
       inkscape:connector-curvature="0" />
    <path
       style="fill:#000000;stroke:#000000;stroke-width:0.26458332px;stroke-linecap:butt;stroke-linejoin:miter;stroke-opacity:1"
       d="m 210,217 c 0,0 0,10 10,10 10,0 10,0 10,0 10,0 10,-10 10,-10 h 10 c 0,0 0,20 -10,20 -10,0 -20,0 -30,0 -10,0 -10,-20 -10,-20 z"
       id="path147"
       inkscape:connector-curvature="0" />
  </g>
</svg>
