<?xml version="1.0" encoding="UTF-8" standalone="no"?>
<!-- Created with Inkscape (http://www.inkscape.org/) -->

<svg
   xmlns:dc="http://purl.org/dc/elements/1.1/"
   xmlns:cc="http://creativecommons.org/ns#"
   xmlns:rdf="http://www.w3.org/1999/02/22-rdf-syntax-ns#"
   xmlns:svg="http://www.w3.org/2000/svg"
   xmlns="http://www.w3.org/2000/svg"
   xmlns:sodipodi="http://sodipodi.sourceforge.net/DTD/sodipodi-0.dtd"
   xmlns:inkscape="http://www.inkscape.org/namespaces/inkscape"
   width="450mm"
   height="450mm"
   viewBox="0 0 450 450"
   version="1.1"
   id="svg8"
   inkscape:version="0.92.3 (2405546, 2018-03-11)"
   sodipodi:docname="cmdpromt.svg">
  <defs
     id="defs2" />
  <sodipodi:namedview
     id="base"
     pagecolor="#ffffff"
     bordercolor="#666666"
     borderopacity="1.0"
     inkscape:pageopacity="0.0"
     inkscape:pageshadow="2"
     inkscape:zoom="0.35"
     inkscape:cx="38.939666"
     inkscape:cy="633.36935"
     inkscape:document-units="mm"
     inkscape:current-layer="layer1"
     showgrid="true"
     inkscape:window-width="1641"
     inkscape:window-height="995"
     inkscape:window-x="39"
     inkscape:window-y="27"
     inkscape:window-maximized="1">
    <inkscape:grid
       type="xygrid"
       id="grid10"
       units="mm"
       spacingx="10"
       spacingy="10" />
  </sodipodi:namedview>
  <metadata
     id="metadata5">
    <rdf:RDF>
      <cc:Work
         rdf:about="">
        <dc:format>image/svg+xml</dc:format>
        <dc:type
           rdf:resource="http://purl.org/dc/dcmitype/StillImage" />
        <dc:title />
      </cc:Work>
    </rdf:RDF>
  </metadata>
  <g
     inkscape:label="Layer 1"
     inkscape:groupmode="layer"
     id="layer1"
     transform="translate(0,153)">
    <path
       style="color:#000000;font-style:normal;font-variant:normal;font-weight:normal;font-stretch:normal;font-size:medium;line-height:normal;font-family:sans-serif;font-variant-ligatures:normal;font-variant-position:normal;font-variant-caps:normal;font-variant-numeric:normal;font-variant-alternates:normal;font-feature-settings:normal;text-indent:0;text-align:start;text-decoration:none;text-decoration-line:none;text-decoration-style:solid;text-decoration-color:#000000;letter-spacing:normal;word-spacing:normal;text-transform:none;writing-mode:lr-tb;direction:ltr;text-orientation:mixed;dominant-baseline:auto;baseline-shift:baseline;text-anchor:start;white-space:normal;shape-padding:0;clip-rule:nonzero;display:inline;overflow:visible;visibility:visible;opacity:1;isolation:auto;mix-blend-mode:normal;color-interpolation:sRGB;color-interpolation-filters:linearRGB;solid-color:#000000;solid-opacity:1;vector-effect:none;fill:#000000;fill-opacity:1;fill-rule:nonzero;stroke:#000000;stroke-width:12;stroke-linecap:butt;stroke-linejoin:round;stroke-miterlimit:4;stroke-dasharray:none;stroke-dashoffset:0;stroke-opacity:1;color-rendering:auto;image-rendering:auto;shape-rendering:auto;text-rendering:auto;enable-background:accumulate"
       d="m 70,-53.132812 c 0,0 -5.027041,-0.0021 -10.058594,2.513671 C 54.909853,-48.103364 49.867188,-43.044097 49.867188,-33 v 210 c 0,10.04409 5.042665,15.10337 10.074218,17.61914 C 64.972959,197.13491 70,197.13281 70,197.13281 h 310 c 10.04409,0 15.10337,-5.04267 17.61914,-10.07422 C 400.13492,182.02705 400.13281,177 400.13281,177 V -33 c 0,-10.044097 -5.04267,-15.103364 -10.07422,-17.619141 C 385.02704,-53.134917 380,-53.132813 380,-53.132812 Z m 0,0.265624 h 310 c 0,0 4.97296,0.0021 9.94141,2.486329 4.96844,2.484223 9.92578,7.424957 9.92578,17.380859 v 210 c 0,0 -0.002,4.97296 -2.48633,9.94141 -2.48422,4.96844 -7.42496,9.92578 -17.38086,9.92578 H 70 c 0,0 -4.97296,-0.002 -9.941406,-2.48633 C 55.090147,191.89664 50.132812,186.95589 50.132812,177 V -33 c 0,-9.955902 4.957335,-14.896636 9.925782,-17.380859 C 65.02704,-52.865083 70,-52.867188 70,-52.867188 Z"
       id="path51"
       inkscape:connector-curvature="0" />
    <path
       style="fill:#000000;stroke:#000000;stroke-width:0.26458332px;stroke-linecap:butt;stroke-linejoin:miter;stroke-opacity:1"
       d="m 100,-2.9999991 h 10 L 120,17 110,37.000002 H 100 L 110,17 Z"
       id="path860"
       inkscape:connector-curvature="0" />
    <path
       style="fill:#000000;stroke:#000000;stroke-width:0.26458332px;stroke-linecap:butt;stroke-linejoin:miter;stroke-opacity:1"
       d="M 120,-2.9999991 130,17 120,37.000002 h 10 L 140,17 130,-2.9999991 h -10"
       id="path862"
       inkscape:connector-curvature="0" />
    <path
       style="fill:#000000;stroke:#000000;stroke-width:0.26458332px;stroke-linecap:butt;stroke-linejoin:miter;stroke-opacity:1"
       d="m 160,-3.0000029 h 30 V 36.999999 h -30 z"
       id="path864"
       inkscape:connector-curvature="0" />
  </g>
</svg>
