<?xml version="1.0" encoding="UTF-8" standalone="no"?>
<!-- Created with Inkscape (http://www.inkscape.org/) -->

<svg
   xmlns:dc="http://purl.org/dc/elements/1.1/"
   xmlns:cc="http://creativecommons.org/ns#"
   xmlns:rdf="http://www.w3.org/1999/02/22-rdf-syntax-ns#"
   xmlns:svg="http://www.w3.org/2000/svg"
   xmlns="http://www.w3.org/2000/svg"
   xmlns:sodipodi="http://sodipodi.sourceforge.net/DTD/sodipodi-0.dtd"
   xmlns:inkscape="http://www.inkscape.org/namespaces/inkscape"
   width="720mm"
   height="360mm"
   viewBox="0 0 720 360"
   version="1.1"
   id="svg8"
   inkscape:version="0.92.3 (2405546, 2018-03-11)"
   sodipodi:docname="Logo.svg"
   inkscape:export-filename="/home/daniel/LargeLogo_720x360.png"
   inkscape:export-xdpi="6.3499999"
   inkscape:export-ydpi="6.3499999">
  <defs
     id="defs2" />
  <sodipodi:namedview
     id="base"
     pagecolor="#ffffff"
     bordercolor="#666666"
     borderopacity="1.0"
     inkscape:pageopacity="0.0"
     inkscape:pageshadow="2"
     inkscape:zoom="0.23"
     inkscape:cx="1302.8293"
     inkscape:cy="674.28571"
     inkscape:document-units="mm"
     inkscape:current-layer="layer2"
     showgrid="true"
     showguides="false"
     inkscape:window-width="1323"
     inkscape:window-height="713"
     inkscape:window-x="43"
     inkscape:window-y="27"
     inkscape:window-maximized="1">
    <inkscape:grid
       type="xygrid"
       id="grid3713"
       units="mm"
       spacingx="10"
       spacingy="10" />
  </sodipodi:namedview>
  <metadata
     id="metadata5">
    <rdf:RDF>
      <cc:Work
         rdf:about="">
        <dc:format>image/svg+xml</dc:format>
        <dc:type
           rdf:resource="http://purl.org/dc/dcmitype/StillImage" />
        <dc:title></dc:title>
      </cc:Work>
    </rdf:RDF>
  </metadata>
  <g
     inkscape:groupmode="layer"
     id="layer2"
     inkscape:label="Background">
    <rect
       style="fill:#000000;fill-opacity:1;stroke-width:0.26458332"
       id="rect4552"
       width="720"
       height="360"
       x="0"
       y="-1.0172525e-05" />
    <text
       xml:space="preserve"
       style="font-style:normal;font-weight:normal;font-size:107.6108017px;line-height:1.25;font-family:sans-serif;letter-spacing:0px;word-spacing:0px;fill:#cccccc;fill-opacity:1;stroke:none;stroke-width:2.69026971"
       x="534.56891"
       y="208.73676"
       id="text63"
       transform="scale(0.6782598,1.4743613)"><tspan
         sodipodi:role="line"
         id="tspan61"
         x="534.56891"
         y="208.73676"
         style="fill:#cccccc;stroke-width:2.69026971">WRENCH</tspan></text>
  </g>
  <g
     inkscape:label="Graphic"
     inkscape:groupmode="layer"
     id="layer1"
     transform="translate(0,63)">
    <path
       style="fill:#009696;fill-opacity:1;stroke:#000000;stroke-width:0.26458332px;stroke-linecap:butt;stroke-linejoin:miter;stroke-opacity:1"
       d="M 60,267 H 39.999999 90 V 237 H 60 c 0,0 10.000001,-20 30,-20 20,0 30,20 30,20 h 120 c 0,0 10,-20 30,-20 20,0 30,20 30,20 h -30 v 30 h 30 c 0,0 -10,20 -30,20 -20,0 -30,-20 -30,-20 H 120 c 0,0 -10,20 -30,20 -19.999999,0 -30,-20 -30,-20 z"
       id="path4541"
       inkscape:connector-curvature="0"
       sodipodi:nodetypes="cccccsccsccccsccsc" />
    <path
       style="fill:#0096ff;fill-opacity:1;stroke:#000000;stroke-width:0.26458332px;stroke-linecap:butt;stroke-linejoin:miter;stroke-opacity:1"
       d="m 60,217 30,-30 30,30 30,-30 30,30 30,-30 30,30 30,-30 30,30 V 87.000002 C 300,6.9999993 250,-52.999999 180,-52.999999 c -70,0 -120,59.9999996 -120,150.000002 z"
       id="path4545"
       inkscape:connector-curvature="0"
       sodipodi:nodetypes="cccccccccsssc" />
    <text
       xml:space="preserve"
       style="font-style:normal;font-weight:normal;font-size:114.75359344px;line-height:1.25;font-family:sans-serif;letter-spacing:0px;word-spacing:0px;fill:#cccccc;fill-opacity:1;stroke:none;stroke-width:2.86883998"
       x="498.93018"
       y="75.766037"
       id="text59"
       transform="scale(0.72328008,1.3825903)"><tspan
         sodipodi:role="line"
         id="tspan57"
         x="498.93018"
         y="75.766037"
         style="font-weight:bold;fill:#cccccc;stroke-width:2.86883998">GHOST</tspan></text>
  </g>
  <g
     inkscape:groupmode="layer"
     id="layer3"
     inkscape:label="Text" />
</svg>
